<svg width="18" height="18" viewBox="0 0 18 18" fill="none" xmlns="http://www.w3.org/2000/svg">
<path fill-rule="evenodd" clip-rule="evenodd" d="M9 1.43944C4.82442 1.43944 1.43944 4.82442 1.43944 9C1.43944 13.1756 4.82442 16.5606 9 16.5606C13.1756 16.5606 16.5606 13.1756 16.5606 9C16.5606 4.82442 13.1756 1.43944 9 1.43944ZM0 9C0 4.02944 4.02944 0 9 0C13.9706 0 18 4.02944 18 9C18 13.9706 13.9706 18 9 18C4.02944 18 0 13.9706 0 9Z" fill="#0077C4"/>
<path fill-rule="evenodd" clip-rule="evenodd" d="M8.99902 4.96899C9.39651 4.96899 9.71873 5.29122 9.71873 5.68871V12.3129C9.71873 12.7104 9.39651 13.0327 8.99902 13.0327C8.60153 13.0327 8.2793 12.7104 8.2793 12.3129V5.68871C8.2793 5.29122 8.60153 4.96899 8.99902 4.96899Z" fill="#0077C4"/>
<path fill-rule="evenodd" clip-rule="evenodd" d="M4.96924 8.99926C4.96924 8.60177 5.29147 8.27954 5.68896 8.27954H12.3132C12.7107 8.27954 13.0329 8.60177 13.0329 8.99926C13.0329 9.39675 12.7107 9.71898 12.3132 9.71898H5.68896C5.29147 9.71898 4.96924 9.39675 4.96924 8.99926Z" fill="#0077C4"/>
</svg>
